<?xml version="1.0" encoding="UTF-8" standalone="no"?>
<svg width="41px" height="41px" viewBox="0 0 41 41" version="1.1" xmlns="http://www.w3.org/2000/svg" xmlns:xlink="http://www.w3.org/1999/xlink">
    <!-- Generator: Sketch 44.1 (41455) - http://www.bohemiancoding.com/sketch -->
    <title>Bookmark</title>
    <desc>Created with Sketch.</desc>
    <defs></defs>
    <g id="Page-1" stroke="none" stroke-width="1" fill="none" fill-rule="evenodd">
        <g id="Bookshop-Desktop-HD_main" transform="translate(-813.000000, -2206.000000)">
            <g id="Shopfront" transform="translate(397.000000, 1545.000000)">
                <g id="Books" transform="translate(0.000000, 188.000000)">
                    <g id="Book-9" transform="translate(392.000000, 373.000000)">
                        <g id="Bookmark" transform="translate(25.000000, 101.000000)">
                            <g>
                                <circle id="Oval-9" stroke="#545963" stroke-width="2" cx="19.5" cy="19.5" r="19.5"></circle>
                                <path d="M25,12 L13,12 C12.4,12 12,12.4 12,13 L12,27 C12,27.6 12.5,28 13,28 C13.2,28 13.3,28 13.5,27.9 L18.5,25 C18.7,24.9 18.8,24.9 19,24.9 C19.2,24.9 19.3,24.9 19.5,25 L24.5,27.9 C24.7,28 24.8,28 25,28 C25.5,28 26,27.6 26,27 L26,13 C26,12.4 25.6,12 25,12 L25,12 Z M24,14 L24,16 L14,16 L14,14 L24,14 L24,14 Z M20.5,23.3 C20,23 19.5,22.9 19,22.9 C18.5,22.9 18,23 17.5,23.3 L14,25.3 L14,18 L24,18 L24,25.3 L20.5,23.3 L20.5,23.3 Z" id="Shape" fill="#545963"></path>
                            </g>
                        </g>
                    </g>
                </g>
            </g>
        </g>
    </g>
</svg>