<?xml version="1.0" encoding="UTF-8" standalone="no"?>
<svg width="57px" height="57px" viewBox="0 0 57 57" version="1.1" xmlns="http://www.w3.org/2000/svg" xmlns:xlink="http://www.w3.org/1999/xlink">
    <!-- Generator: Sketch 44.1 (41455) - http://www.bohemiancoding.com/sketch -->
    <title>Glasses</title>
    <desc>Created with Sketch.</desc>
    <defs></defs>
    <g id="Page-1" stroke="none" stroke-width="1" fill="none" fill-rule="evenodd">
        <g id="Bookshop-Desktop-HD_main" transform="translate(-834.000000, -2136.000000)">
            <g id="Shopfront" transform="translate(397.000000, 1545.000000)">
                <g id="Books" transform="translate(0.000000, 188.000000)">
                    <g id="Book-9" transform="translate(392.000000, 373.000000)">
                        <g id="Glasses" transform="translate(46.000000, 31.000000)">
                            <circle id="Oval-9" stroke="#545963" stroke-width="2" cx="27.5" cy="27.5" r="27.5"></circle>
                            <path d="M21,36 C18.2,36 16,33.8 16,31 C16,28.2 18.2,26 21,26 C23.8,26 26,28.2 26,31 C26,33.8 23.8,36 21,36 L21,36 Z M21,28 C19.3,28 18,29.3 18,31 C18,32.7 19.3,34 21,34 C22.7,34 24,32.7 24,31 C24,29.3 22.7,28 21,28 L21,28 Z" id="Shape" fill="#545963"></path>
                            <path d="M35,36 C32.2,36 30,33.8 30,31 C30,28.2 32.2,26 35,26 C37.8,26 40,28.2 40,31 C40,33.8 37.8,36 35,36 L35,36 Z M35,28 C33.3,28 32,29.3 32,31 C32,32.7 33.3,34 35,34 C36.7,34 38,32.7 38,31 C38,29.3 36.7,28 35,28 L35,28 Z" id="Shape" fill="#545963"></path>
                            <path d="M31.1,31.4 C30.8,31.4 30.5,31.3 30.3,31 C29.7,30.4 28.9,30 28,30 C27.1,30 26.3,30.4 25.7,31.1 C25.3,31.5 24.7,31.6 24.3,31.2 C23.9,30.8 23.8,30.2 24.2,29.8 C25.2,28.7 26.5,28 28,28 C29.5,28 30.9,28.6 31.8,29.8 C32.2,30.2 32.1,30.9 31.7,31.2 C31.5,31.3 31.3,31.4 31.1,31.4 L31.1,31.4 Z" id="Shape" fill="#545963"></path>
                            <path d="M17,32 C16.4,32 16,31.6 16,31 C16,27.1 16.4,18 20,18 C22.2,18 23,19.8 23,21 C23,21.6 22.6,22 22,22 C21.4,22 21,21.6 21,21 C21,20.5 20.8,20 20,20 C19.1,20 18,25.1 18,31 C18,31.6 17.6,32 17,32 L17,32 Z" id="Shape" fill="#545963"></path>
                            <path d="M39,32 C38.4,32 38,31.6 38,31 C38,23.4 36.6,20 36,20 C35.2,20 35,20.6 35,21 C35,21.5 34.5,22 34,22 L34,22 C33.5,22 33,21.6 33,21 C33,19.8 33.8,18 36,18 C39.6,18 40,27.1 40,31 C40,31.6 39.6,32 39,32 L39,32 Z" id="Shape" fill="#545963"></path>
                        </g>
                    </g>
                </g>
            </g>
        </g>
    </g>
</svg>