<?xml version="1.0" encoding="UTF-8" standalone="no"?>
<svg width="15px" height="16px" viewBox="0 0 15 16" version="1.1" xmlns="http://www.w3.org/2000/svg" xmlns:xlink="http://www.w3.org/1999/xlink">
    <!-- Generator: Sketch 44.1 (41455) - http://www.bohemiancoding.com/sketch -->
    <title>Google</title>
    <desc>Created with Sketch.</desc>
    <defs></defs>
    <g id="Symbols" stroke="none" stroke-width="1" fill="none" fill-rule="evenodd">
        <g id="Sign-in-with-google" transform="translate(-31.000000, -14.000000)" fill="#555963">
            <g id="Google">
                <path d="M38.7217504,29.1674602 C34.4640528,29.1674602 31,25.766093 31,21.583842 C31,17.4018149 34.4640528,14 38.7217504,14 C40.5839614,14 42.3830391,14.6608857 43.7867495,15.8601961 L41.823122,18.0763571 C40.9638811,17.3422635 39.862405,16.9377173 38.7217504,16.9377173 C36.1131326,16.9377173 33.991224,19.0220146 33.991224,21.5836182 C33.991224,24.1449978 36.1133565,26.2290712 38.7217504,26.2290712 C40.9287324,26.2290712 42.3734123,25.1716989 42.8426591,23.2745631 L38.7582424,23.2745631 L38.7582424,20.3370696 L46,20.3370696 L46,21.8061521 C46,26.2086984 43.0750437,29.1674602 38.7217504,29.1674602 L38.7217504,29.1674602 Z"></path>
            </g>
        </g>
    </g>
</svg>