<?xml version="1.0" encoding="UTF-8" standalone="no"?>
<svg width="21px" height="21px" viewBox="0 0 21 21" version="1.1" xmlns="http://www.w3.org/2000/svg" xmlns:xlink="http://www.w3.org/1999/xlink">
    <!-- Generator: Sketch 44.1 (41455) - http://www.bohemiancoding.com/sketch -->
    <title>Icon</title>
    <desc>Created with Sketch.</desc>
    <defs></defs>
    <g id="Page-1" stroke="none" stroke-width="1" fill="none" fill-rule="evenodd">
        <g id="Bookshop-Desktop-HD_main" transform="translate(-1195.000000, -3777.000000)" fill="#000000">
            <g id="Popular-authors" transform="translate(-134.000000, 2873.000000)">
                <g id="John-Fowles" transform="translate(504.000000, 453.000000)">
                    <g id="To-the-writer-page-button" transform="translate(706.000000, 451.000000)">
                        <g id="Icon" transform="translate(119.000000, 0.000000)">
                            <path d="M17.0650375,17.7520875 C16.9838375,17.7520875 16.902725,17.7298625 16.8317625,17.684625 C16.4976875,17.473575 13.56845,15.568875 13.598375,13.673625 C13.6077375,13.08405 13.8854625,12.5755875 14.4272625,12.15865 C13.9402375,11.2452375 12.8601375,8.9551875 13.557425,7.736225 C13.71125,7.467075 14.002625,7.1577625 14.5495,7.027825 C14.2667,5.873 13.9804,3.0928625 16.77375,0.5982375 C16.9395625,0.45045 17.190775,0.45045 17.3565,0.5982375 C20.14985,3.09295 19.86355,5.8725625 19.58075,7.027475 C20.127625,7.1577625 20.419,7.467075 20.5737,7.7366625 C21.2701125,8.955625 20.1908875,11.246025 19.7029875,12.159525 C20.2439125,12.57655 20.522425,13.08405 20.531875,13.6745 C20.5618,15.568875 17.6325625,17.473575 17.2984875,17.684625 C17.2274375,17.7298625 17.1462375,17.7520875 17.0650375,17.7520875 L17.0650375,17.7520875 Z M17.0650375,1.5239875 C14.2879625,4.26475 15.5099,7.198275 15.522675,7.22855 C15.580775,7.364 15.568,7.5194875 15.4868,7.6425125 C15.406475,7.765625 15.268925,7.84 15.121925,7.84 C14.5058375,7.840875 14.363125,8.0891125 14.3170125,8.1706625 C13.8761,8.9422375 14.736575,10.975125 15.3825875,12.0757 C15.5047375,12.2833375 15.4347375,12.5516125 15.2271,12.67385 C14.72555,12.9686375 14.4794125,13.300175 14.4734625,13.687275 C14.455525,14.7767375 16.1644875,16.17385 17.065125,16.7908125 C17.9657625,16.17385 19.674725,14.7767375 19.6567875,13.687275 C19.6508375,13.30105 19.4047,12.9695125 18.90315,12.674725 C18.6955125,12.552575 18.6263,12.2850875 18.7476625,12.076575 C19.393675,10.975125 20.25415,8.940575 19.8132375,8.1706625 C19.767125,8.089025 19.6252875,7.8407875 19.008325,7.84 C18.8622,7.84 18.725525,7.765275 18.644325,7.6430375 C18.564,7.5208875 18.549475,7.3653125 18.6067,7.2303 C18.65955,7.105525 19.827675,4.24515 17.0650375,1.5239875 L17.0650375,1.5239875 Z" id="Shape"></path>
                            <path d="M17.0650375,20.9820625 C16.8231875,20.9820625 16.6275375,20.7864125 16.6275375,20.5445625 L16.6275375,17.3145875 C16.6275375,17.0727375 16.8231875,16.8770875 17.0650375,16.8770875 C17.3068875,16.8770875 17.5025375,17.0727375 17.5025375,17.3145875 L17.5025375,20.5445625 C17.5025375,20.7864125 17.3068875,20.9820625 17.0650375,20.9820625 L17.0650375,20.9820625 Z" id="Shape"></path>
                            <path d="M17.0650375,14.8220625 C16.8231875,14.8220625 16.6275375,14.6264125 16.6275375,14.3845625 L16.6275375,8.3265875 C16.6275375,8.0847375 16.8231875,7.8890875 17.0650375,7.8890875 C17.3068875,7.8890875 17.5025375,8.0847375 17.5025375,8.3265875 L17.5025375,14.384475 C17.5025375,14.626325 17.3068875,14.8220625 17.0650375,14.8220625 L17.0650375,14.8220625 Z" id="Shape"></path>
                            <path d="M11.704,21 L0.4969125,21 C0.2550625,21 0.0594125,20.80435 0.0594125,20.5625 C0.0594125,17.829875 1.7654,15.4543375 3.5244125,14.4144 L3.5244125,13.5625 C3.5244125,13.321525 3.332175,13.125 3.0954875,13.125 C2.8536375,13.125 2.6579875,12.92935 2.6579875,12.6875 L2.6579875,10.0625 C2.6579875,9.82065 2.8536375,9.625 3.0954875,9.625 L9.10595,9.625 C9.3478,9.625 9.54345,9.82065 9.54345,10.0625 L9.54345,12.6875 C9.54345,12.92935 9.3478,13.125 9.10595,13.125 C8.8692625,13.125 8.677025,13.321525 8.677025,13.5625 L8.677025,14.4144 C10.4356,15.4543375 12.1415875,17.8297875 12.1415875,20.5625 C12.1415,20.80435 11.9457625,21 11.704,21 L11.704,21 Z M0.951475,20.125 L11.24935,20.125 C11.0698875,17.826375 9.510025,15.8277875 8.036875,15.0595375 C7.8925,14.984375 7.80185,14.8348375 7.80185,14.6715625 L7.80185,13.5625 C7.80185,12.9934 8.16375,12.5071625 8.668275,12.3260375 L8.668275,10.5 L3.5329,10.5 L3.5329,12.3260375 C4.0375125,12.5071625 4.399325,12.9934 4.399325,13.5625 L4.399325,14.67165 C4.399325,14.8348375 4.3087625,14.984375 4.1643,15.059625 C2.6912375,15.8277875 1.1309375,17.826375 0.951475,20.125 L0.951475,20.125 Z" id="Shape"></path>
                        </g>
                    </g>
                </g>
            </g>
        </g>
    </g>
</svg>