<?xml version="1.0" encoding="UTF-8" standalone="no"?>
<svg width="39px" height="39px" viewBox="0 0 39 39" version="1.1" xmlns="http://www.w3.org/2000/svg" xmlns:xlink="http://www.w3.org/1999/xlink">
    <!-- Generator: Sketch 44.1 (41455) - http://www.bohemiancoding.com/sketch -->
    <title>Instagram</title>
    <desc>Created with Sketch.</desc>
    <defs></defs>
    <g id="Page-1" stroke="none" stroke-width="1" fill="none" fill-rule="evenodd">
        <g id="Bookshop-Desktop-HD_main" transform="translate(-1346.000000, -8727.000000)">
            <g id="Footer" transform="translate(-338.000000, 8309.000000)">
                <g id="Follow-us" transform="translate(1508.000000, 362.000000)">
                    <g id="Instagram" transform="translate(176.000000, 56.000000)">
                        <circle id="Oval-2" fill="#545963" cx="19.5" cy="19.5" r="19.5"></circle>
                        <g id="instagram" transform="translate(12.000000, 11.000000)" fill="#F5FDFF">
                            <path d="M14.2222222,0 L1.77777778,0 C0.8,0 0,0.8 0,1.77777778 L0,14.2222222 C0,15.2008889 0.8,16 1.77777778,16 L14.2222222,16 C15.2,16 16,15.2008889 16,14.2222222 L16,1.77777778 C16,0.8 15.2,0 14.2222222,0 L14.2222222,0 Z M7.98577778,12.9093333 C10.7048889,12.9093333 12.9084444,10.704 12.9084444,7.98577778 C12.9084444,7.68533333 12.8702222,7.39555556 12.8168889,7.11111111 L14.2222222,7.11111111 L14.2222222,13.5253333 C14.2222222,13.8648889 13.9466667,14.1386667 13.6062222,14.1386667 L2.39377778,14.1386667 C2.05333333,14.1386667 1.77777778,13.8648889 1.77777778,13.5253333 L1.77777778,7.11111111 L3.15466667,7.11111111 C3.10044444,7.39555556 3.06222222,7.68533333 3.06222222,7.98577778 C3.06222222,10.7048889 5.26755556,12.9093333 7.98577778,12.9093333 L7.98577778,12.9093333 Z M4.90933333,7.98577778 C4.90933333,6.28622222 6.28711111,4.90933333 7.98666667,4.90933333 C9.68533333,4.90933333 11.064,6.28622222 11.064,7.98577778 C11.064,9.68533333 9.68533333,11.0631111 7.98666667,11.0631111 C6.28622222,11.0631111 4.90933333,9.68533333 4.90933333,7.98577778 L4.90933333,7.98577778 Z M13.6062222,4.44444444 L12.1706667,4.44444444 C11.8311111,4.44444444 11.5555556,4.16711111 11.5555556,3.82933333 L11.5555556,2.392 C11.5555556,2.05244444 11.8311111,1.77777778 12.1697778,1.77777778 L13.6053333,1.77777778 C13.9466667,1.77777778 14.2222222,2.05244444 14.2222222,2.392 L14.2222222,3.82844444 C14.2222222,4.16711111 13.9466667,4.44444444 13.6062222,4.44444444 L13.6062222,4.44444444 Z" id="Shape"></path>
                        </g>
                    </g>
                </g>
            </g>
        </g>
    </g>
</svg>