<?xml version="1.0" encoding="UTF-8" standalone="no"?>
<svg width="213px" height="56px" viewBox="0 0 213 56" version="1.1" xmlns="http://www.w3.org/2000/svg" xmlns:xlink="http://www.w3.org/1999/xlink">
    <!-- Generator: Sketch 44.1 (41455) - http://www.bohemiancoding.com/sketch -->
    <title>Logo</title>
    <desc>Created with Sketch.</desc>
    <defs></defs>
    <g id="Page-1" stroke="none" stroke-width="1" fill="none" fill-rule="evenodd">
        <g id="Bookshop-Desktop-HD_main" transform="translate(-391.000000, -36.000000)">
            <g id="Header" transform="translate(357.000000, 16.000000)">
                <g id="Logo" transform="translate(34.000000, 21.000000)">
                    <text id="Bookworm" font-family=".SFNSDisplay-Regular, .SF NS Display" font-size="29" font-weight="normal" letter-spacing="0.200000003" fill="#45474B">
                        <tspan x="59" y="34">Bookwor</tspan>
                        <tspan x="173.539648" y="34">m</tspan>
                    </text>
                    <text id="All-abot-literature" font-family=".AppleSystemUIFont" font-size="11" font-weight="normal" fill="#45474B">
                        <tspan x="123" y="14">All abot literature</tspan>
                    </text>
                    <g id="Book">
                        <circle id="Oval" fill="#45474B" cx="22" cy="33" r="22"></circle>
                        <path d="M20.111,42.926 C18.821,42.11 19.039,39.969 19.039,39.969 L19.039,9.698 C19.095,10.388 19.291,11.251 19.917,11.682 C21.355,12.672 25.114,12.617 25.226,12.616 L44.06,1.986 L44.06,33.06 L25.226,43.678 C25.114,43.622 21.534,43.825 20.111,42.926 Z M19.039,8.697 L19.039,9.698 C18.995,9.143 19.039,8.697 19.039,8.697 L19.039,8.697 Z" id="Shape" fill="#FFFFFF"></path>
                        <path d="M43,3.01398595 L25.2524414,12.9812012 C25.2524414,12.9812012 22.7266054,13.3225163 20.9940135,12.7425698 C19.6194141,12.2819391 20.1043869,10.4191685 20.1043869,10.4191685 L38.2634839,-2.66453526e-15" id="Shape" stroke="#44474A" stroke-width="2" fill="#FFFFFF"></path>
                        <path d="M43,2.2578125 L43,35.7678146" id="Path-14" stroke="#44474A" stroke-width="2"></path>
                    </g>
                    <path d="M208.972122,45.0078125 L60.9321289,45.0078125" id="Path-5" stroke="#45474B" stroke-width="2"></path>
                </g>
            </g>
        </g>
    </g>
</svg>