<?xml version="1.0" encoding="UTF-8" standalone="no"?>
<svg width="39px" height="39px" viewBox="0 0 39 39" version="1.1" xmlns="http://www.w3.org/2000/svg" xmlns:xlink="http://www.w3.org/1999/xlink">
    <!-- Generator: Sketch 44.1 (41455) - http://www.bohemiancoding.com/sketch -->
    <title>Pinterest</title>
    <desc>Created with Sketch.</desc>
    <defs></defs>
    <g id="Page-1" stroke="none" stroke-width="1" fill="none" fill-rule="evenodd">
        <g id="Bookshop-Desktop-HD_main" transform="translate(-1287.000000, -8727.000000)">
            <g id="Footer" transform="translate(-338.000000, 8309.000000)">
                <g id="Follow-us" transform="translate(1508.000000, 362.000000)">
                    <g id="Pinterest" transform="translate(117.000000, 56.000000)">
                        <circle id="Oval-2" fill="#545963" cx="19.5" cy="19.5" r="19.5"></circle>
                        <path d="M17.9964665,22.4007137 C17.5033415,24.9825887 16.902404,27.4575887 15.1202165,28.7504012 C14.5708415,24.8485262 15.927404,21.9188387 16.5583415,18.8082137 C15.483029,16.9988387 16.6877165,13.3594637 18.953654,14.2566512 C21.7427165,15.3591512 16.538654,20.9804012 20.031779,21.6835262 C23.6795915,22.4157137 25.1683415,15.3554012 22.906154,13.0594637 C19.6389665,9.74258866 13.394279,12.9816512 14.163029,17.7300887 C14.3495915,18.8907137 15.548654,19.2422762 14.6420915,20.8444637 C12.550529,20.3813387 11.926154,18.7313387 12.006779,16.5319637 C12.136154,12.9319637 15.2402165,10.4129012 18.3545915,10.0632137 C22.293029,9.62165116 25.9895915,11.5097762 26.500529,15.2138387 C27.0752165,19.3960262 24.723029,23.9260262 20.5108415,23.5997762 C19.3689665,23.5107137 18.8908415,22.9444637 17.9964665,22.4007137 L17.9964665,22.4007137 Z" id="Shape" fill="#F5FDFF"></path>
                    </g>
                </g>
            </g>
        </g>
    </g>
</svg>