<?xml version="1.0" encoding="UTF-8" standalone="no"?>
<svg width="22px" height="20px" viewBox="0 0 22 20" version="1.1" xmlns="http://www.w3.org/2000/svg" xmlns:xlink="http://www.w3.org/1999/xlink">
    <!-- Generator: Sketch 44.1 (41455) - http://www.bohemiancoding.com/sketch -->
    <title>shopping cart</title>
    <desc>Created with Sketch.</desc>
    <defs></defs>
    <g id="Page-1" stroke="none" stroke-width="1" fill="none" fill-rule="evenodd">
        <g id="Bookshop-Desktop-HD_main" transform="translate(-1435.000000, -56.000000)" fill="#545963">
            <g id="Header" transform="translate(357.000000, 16.000000)">
                <g id="shopping-cart" transform="translate(1078.000000, 40.000000)">
                    <path d="M19,11 L4,11 C3.4,11 3,10.6 3,10 L3,1 C3,0.4 3.4,0 4,0 L21,0 C21.3,0 21.6,0.1 21.8,0.4 C22,0.6 22,0.9 22,1.2 L20,10.2 C19.9,10.7 19.5,11 19,11 L19,11 Z M5,9 L18.2,9 L19.8,2 L5,2 L5,9 L5,9 Z" id="Shape"></path>
                    <path d="M4,2 L1,2 C0.4,2 0,1.6 0,1 C0,0.4 0.4,0 1,0 L4,0 C4.6,0 5,0.4 5,1 C5,1.6 4.6,2 4,2 L4,2 Z" id="Shape"></path>
                    <path d="M4,2 C3.7,2 3.5,1.9 3.3,1.7 C3.1,1.5 3,1.3 3,1 C3,0.7 3.1,0.5 3.3,0.3 C3.7,-0.1 4.3,-0.1 4.7,0.3 C4.9,0.5 5,0.7 5,1 C5,1.3 4.9,1.5 4.7,1.7 C4.5,1.9 4.3,2 4,2 L4,2 Z" id="Shape"></path>
                    <circle id="Oval" cx="6" cy="18" r="2"></circle>
                    <circle id="Oval" cx="17" cy="18" r="2"></circle>
                    <path d="M4,15 C3.4,15 3,14.6 3,14 L3,10 C3,9.4 3.4,9 4,9 C4.6,9 5,9.4 5,10 L5,14 C5,14.6 4.6,15 4,15 L4,15 Z" id="Shape"></path>
                    <path d="M19,15 L4,15 C3.4,15 3,14.6 3,14 C3,13.4 3.4,13 4,13 L19,13 C19.6,13 20,13.4 20,14 C20,14.6 19.6,15 19,15 L19,15 Z" id="Shape"></path>
                </g>
            </g>
        </g>
    </g>
</svg>