<?xml version="1.0" encoding="UTF-8" standalone="no"?>
<svg width="39px" height="39px" viewBox="0 0 39 39" version="1.1" xmlns="http://www.w3.org/2000/svg" xmlns:xlink="http://www.w3.org/1999/xlink">
    <!-- Generator: Sketch 44.1 (41455) - http://www.bohemiancoding.com/sketch -->
    <title>Twitter</title>
    <desc>Created with Sketch.</desc>
    <defs></defs>
    <g id="Page-1" stroke="none" stroke-width="1" fill="none" fill-rule="evenodd">
        <g id="Bookshop-Desktop-HD_main" transform="translate(-1229.000000, -8727.000000)">
            <g id="Footer" transform="translate(-338.000000, 8309.000000)">
                <g id="Follow-us" transform="translate(1508.000000, 362.000000)">
                    <g id="Twitter" transform="translate(59.000000, 56.000000)">
                        <circle id="Oval-2" fill="#545963" cx="19.5" cy="19.5" r="19.5"></circle>
                        <path d="M27,15 C27.2667391,15.6367041 27.2695109,15.7902622 27,16 C27.2695109,20.6142322 23.761413,26 17,26 C15.3759783,26 13.5438587,25.414794 12,24 C12.2734783,24.4438202 12.5506522,24.4606742 13,24 C14.4668478,24.4606742 15.9700543,23.8951311 17,23 C15.6374457,22.9194757 14.348587,21.8988764 14,20 C14.1176087,20.5346442 14.3365761,20.5561798 15,21 C14.879837,20.5561798 15.1884239,20.5140449 15,20 C13.8847826,20.1076779 12.6827717,18.6797753 13,17 C12.6827717,16.9513109 12.6827717,16.9372659 13,17 C13.1530435,17.1872659 13.6916848,17.3464419 14,17 C13.3267391,16.7303371 12.7104891,15.6498127 13,14 C12.7104891,13.7752809 12.882337,13.167603 13,13 C14.9029348,14.7846442 17.4741848,16.1910112 20,16 C20.3133696,16.079588 20.2828804,15.8108614 20,16 C20.2828804,13.5814607 21.8433696,12 24,12 C24.7730978,12 25.6794565,12.4279026 26,13 C27.1096739,12.9559925 27.8561957,12.661985 29,12 C28.2701087,13.082397 27.7166848,13.7752809 27,14 C27.7028261,14.1264045 28.373587,13.9382022 29,14 C28.5325,14.3661049 27.9411957,14.9878277 27,15 L27,15 Z" id="Shape" fill="#F5FDFF"></path>
                    </g>
                </g>
            </g>
        </g>
    </g>
</svg>